<?xml version="1.0" standalone="no"?><!DOCTYPE svg PUBLIC "-//W3C//DTD SVG 1.1//EN" "http://www.w3.org/Graphics/SVG/1.1/DTD/svg11.dtd"><svg t="1740747921831" class="icon" viewBox="0 0 1410 1024" version="1.1" xmlns="http://www.w3.org/2000/svg" p-id="11885" xmlns:xlink="http://www.w3.org/1999/xlink" width="275.390625" height="200"><path d="M239.559767 1024a47.157784 47.157784 0 0 1-33.227827-13.663779 704.749345 704.749345 0 0 1 0-996.302455 47.024695 47.024695 0 0 1 66.54438 66.54438 610.433778 610.433778 0 0 0 0 863.258058 47.113421 47.113421 0 0 1-33.316553 80.07507m929.758075 0a47.069058 47.069058 0 0 1-33.316553-80.296885 610.522503 610.522503 0 0 0 0-863.346784 47.024695 47.024695 0 0 1 66.54438-66.544379 704.571893 704.571893 0 0 1 0 996.169365 47.202147 47.202147 0 0 1-33.227827 13.708143" fill="#6A6484" p-id="11886"></path><path d="M1003.178707 857.905228a47.113421 47.113421 0 0 1-33.227827-80.163796 375.443391 375.443391 0 0 0 0-531.290329 47.024695 47.024695 0 0 1 66.54438-66.54438 469.803322 469.803322 0 0 1 0 664.201637 47.157784 47.157784 0 0 1-33.227827 13.663779m-597.612894 0A47.157784 47.157784 0 0 1 372.426712 844.10836a469.803322 469.803322 0 0 1 0-664.201637 47.024695 47.024695 0 0 1 66.54438 66.54438 375.443391 375.443391 0 0 0 0 531.290329 47.113421 47.113421 0 0 1-33.227827 80.163796m298.828628-533.641563a187.832603 187.832603 0 1 0 132.822583 55.054383 187.522062 187.522062 0 0 0-132.822583-55.054383m0 93.960664a93.871938 93.871938 0 1 1-66.544379 27.549373 93.162132 93.162132 0 0 1 66.544379-27.549373" fill="#6A6484" p-id="11887"></path></svg>